<svg xmlns="http://www.w3.org/2000/svg" viewBox="0 0 48 48" width="48" height="48"><defs><style>.c1{fill:#000;}</style></defs>
  <path class="c1" d="M34.3382,48.00003H13.66152c-7.53339,0-13.66152-6.12816-13.66152-13.66152V13.66152C0,6.12874,6.12813,0,13.66152,0h20.67668c7.53306,0,13.6618,6.12874,13.6618,13.66152v20.67699c0,7.53336-6.12874,13.66152-13.6618,13.66152ZM13.66152,4.11444c-5.26457,0-9.54739,4.28281-9.54739,9.54708v20.67699c0,5.26457,4.28281,9.54739,9.54739,9.54739h20.67668c5.26457,0,9.54739-4.28281,9.54739-9.54739V13.66152c0-5.26427-4.28281-9.54708-9.54739-9.54708H13.66152Z"/><path class="d" d="M24,36.29013c-6.77672,0-12.29013-5.51311-12.29013-12.29013s5.51341-12.29013,12.29013-12.29013,12.29013,5.51344,12.29013,12.29013-5.51341,12.29013-12.29013,12.29013Zm0-20.46583c-4.50821,0-8.17599,3.66749-8.17599,8.17569s3.66779,8.176,8.17599,8.176,8.17569-3.66779,8.17569-8.176-3.66749-8.17569-8.17569-8.17569Z"/><path class="d" d="M39.77116,11.00666c0,1.63151-1.32237,2.9536-2.95361,2.9536-1.63151,0-2.95391-1.3221-2.95391-2.9536s1.3224-2.95391,2.95391-2.95391c1.63123,0,2.95361,1.3224,2.95361,2.95391Z"/>
</svg>
