<svg xmlns="http://www.w3.org/2000/svg" viewBox="0 0 64 64" width="64" height="64"><defs><style>.c1{fill:#1a2173;}</style></defs>
  <path class="c1" d="M51.61,32.6825c-1.42765,0-2.585,1.15734-2.585,2.585v19.6075c-.00207,2.18156-1.76969,3.94974-3.95125,3.9525H9.125c-2.18302-.00069-3.95293-1.76947-3.955-3.9525V18.92625c.00276-2.18254,1.77246-3.95056,3.955-3.95125H28.73125c1.42766,.0001,2.58508-1.15717,2.58517-2.58483,.0001-1.42766-1.15717-2.58508-2.58483-2.58517H9.125C4.08712,9.80914,.00414,13.89212,0,18.93V54.875c.00414,5.03788,4.08712,9.12086,9.125,9.125H45.0725c5.03788-.00414,9.12086-4.08712,9.125-9.125v-19.60625c.00069-1.42765-1.15609-2.58556-2.58375-2.58625h-.00375Z"/>
  <path class="c1" d="M61.415,0h-19.61c-1.42765,.0001-2.58492,1.15752-2.58483,2.58517,.0001,1.42752,1.15731,2.58473,2.58483,2.58483h17.025V22.195c.00123,1.42766,1.15957,2.584,2.58723,2.58277,1.42591-.00123,2.58154-1.15685,2.58277-2.58277V2.585C64,1.15734,62.84266,0,61.415,0Z"/>
  <path class="c1" d="M63.2425,.7575c-1.00937-1.00965-2.6461-1.00987-3.65574-.00051l-.00051,.00051L23.635,36.70875c-1.00965,1.00965-1.00965,2.6466,0,3.65625s2.6466,1.00965,3.65625,0L63.2425,4.41375c1.00964-1.00937,1.00987-2.6461,.00051-3.65574l-.00051-.00051Z"/>
</svg>
