<svg xmlns="http://www.w3.org/2000/svg" viewBox="0 0 48 48" width="48" height="48"><defs><style>.c1{fill:#000;}</style></defs>
  <path class="c1" d="M42.375,0H5.625C2.53125,0,0,2.53125,0,5.625V42.375c0,3.09375,2.53125,5.625,5.625,5.625H25.2453V29.60614h-5.7453v-7.40606h5.7453v-5.3823c0-6.04275,2.9577-9.63647,9.76447-9.63647h5.66657v7.40844h-4.28998c-2.65027,0-2.82697,1.03455-2.82697,2.96603l-.00952,4.64429h6.79322l-.93915,7.40606h-5.85407v18.39386h8.82514c3.09375,0,5.625-2.53125,5.625-5.625V5.625c0-3.09375-2.53125-5.625-5.625-5.625Z"/>
</svg>
